PathFileType	4	(X/Y/Z)	C:\Users\WrightLab\Desktop\Jo\P5V21.trc
DataRate	CameraRate	NumFrames	NumMarkers	Units	OrigDataRate	OrigDataStartFrame	OrigNumFrames
100.00	100.00	       8	19	mm	100.00	50	       399
Frame#	Time	Headset_Front			Headset_Back			Headset_Left			Headset_Right			Left_Shoulder			Right_Shoulder			Sternum			C7			Left Elbow			Right Elbow			Left Wrist			Right Wrist			Left ASIS			Right ASIS			S2			Left Knee			Right Knee			Left Ankle			Right Ankle			
		X1	Y1	Z1	X2	Y2	Z2	X3	Y3	Z3	X4	Y4	Z4	X5	Y5	Z5	X6	Y6	Z6	X7	Y7	Z7	X8	Y8	Z8	X9	Y9	Z9	X10	Y10	Z10	X11	Y11	Z11	X12	Y12	Z12	X13	Y13	Z13	X14	Y14	Z14	X15	Y15	Z15	X16	Y16	Z16	X17	Y17	Z17	X18	Y18	Z18	X19	Y19	Z19	

50	0.490	-31.54180	1401.62354	-320.04639	-141.92110	1504.56384	-298.32324				14.51700	1547.47375	-466.16019	-29.61946	1477.35413	-671.18127	-241.52713	1425.62756	-357.96613	-124.38484	1265.76758	-500.29245	-261.65015	1510.00317	-576.51007	26.63212	1345.74072	-630.32703	-201.33623	1219.15051	-183.28635	8.80941	1230.15173	-788.08984	-0.05166	1137.06433	-33.41787	-27.96373	907.45892	-595.46130	-223.90807	907.70825	-366.01355	-311.19156	978.08649	-714.54694	-16.55953	484.02963	-558.27533	-334.90900	496.57236	-359.13794	-92.52946	79.68059	-542.74652	-432.80801	176.70662	-629.54956	
51	0.500	-29.68113	1400.56140	-316.15717	-140.01643	1504.50330	-294.34125				16.13519	1547.22412	-462.11417	-28.61645	1477.94873	-666.40637	-240.97940	1424.88684	-355.80853	-122.52716	1266.02502	-495.46533	-259.59119	1510.48035	-571.74432	28.04903	1346.46960	-627.10504	-197.26990	1218.65894	-180.23158	9.47435	1231.08594	-785.27350	4.07137	1138.21277	-29.80576	-26.67077	907.87726	-593.84351	-220.87897	907.85059	-363.30145	-310.44543	978.67145	-709.95068	-16.16350	483.73804	-556.40302	-330.11127	498.80243	-353.30182	-93.03907	79.30379	-542.55920	-429.38910	171.76787	-613.83582	
52	0.510	-28.09328	1400.11926	-312.87973	-136.11456	1504.17761	-289.73526				18.42879	1547.05811	-458.43280	-27.65201	1478.63953	-662.95270	-235.32916	1426.35913	-348.22287	-120.58569	1265.96655	-491.85214	-258.54990	1510.99451	-566.66937	28.94463	1346.53430	-623.16443	-192.50890	1220.28210	-174.04843	10.11645	1231.99182	-781.93323	9.09400	1139.08630	-26.27700	-25.24623	908.83832	-591.17792	-218.75093	907.26245	-358.37527	-309.75113	980.23511	-706.09369	-15.61011	483.84216	-555.34949	-325.77274	499.84537	-347.34024	-92.77671	79.38836	-542.48126	-425.80801	166.64819	-598.25391	
53	0.520	-27.37531	1399.71338	-309.87238	-135.25011	1504.91418	-286.07596				20.22867	1546.63562	-453.85925	-26.76108	1479.60754	-659.10510	-234.70676	1425.46667	-346.05865	-118.41952	1266.76282	-487.48572	-256.99548	1511.62683	-562.28137	30.14010	1346.96875	-619.77393	-189.11371	1220.26099	-170.73364	10.47887	1233.69263	-780.25574	13.56881	1139.53357	-22.07227	-24.48181	908.98169	-588.88672	-215.82039	908.14081	-355.04977	-310.00754	981.60535	-702.47150	-14.81687	484.48065	-553.11639	-321.65643	500.67844	-342.13611	-93.53447	79.56424	-542.63824	-421.71729	161.95749	-582.30267	
54	0.530	-25.55914	1400.05139	-306.57938	-132.67358	1504.12488	-281.92380				22.35513	1546.69165	-449.91772	-25.98661	1481.15198	-656.90564	-231.60771	1426.91064	-339.52133	-116.29369	1267.45947	-483.90237	-255.83691	1511.88916	-556.93024	30.83720	1347.83716	-617.15045	-184.30180	1221.64197	-164.71950	10.77737	1234.54590	-776.70673	18.05640	1140.05273	-18.47723	-24.17732	908.86334	-587.64795	-212.53104	908.70758	-352.24524	-307.89194	981.47974	-695.87952	-13.53520	484.70447	-552.53003	-318.11401	501.91479	-336.76196	-93.07398	79.51438	-542.42737	-418.07303	157.36336	-566.36841	
55	0.540	-21.59122	1399.98145	-301.74667	-129.72487	1502.74158	-277.53348				23.68672	1546.36426	-446.50089	-25.38946	1481.34778	-652.12701	-230.11594	1425.54248	-336.85696	-115.24174	1267.47327	-481.18192	-254.47946	1512.44177	-552.33167	31.46164	1348.34302	-614.03259	-180.88254	1221.47900	-161.57890	11.20578	1235.43250	-773.23157	23.01870	1140.15491	-14.92550	-22.70466	910.34277	-585.64935	-212.88528	908.59558	-350.31918	-308.41669	982.75073	-693.98248	-13.15130	485.20770	-551.97241	-314.59125	503.05307	-331.94174	-93.16378	79.72633	-542.61316	-414.30185	152.44920	-550.51489	
56	0.550	-20.00988	1399.11035	-298.34396	-127.95127	1503.98474	-272.96701				25.51495	1546.62952	-442.52728	-24.60883	1482.09460	-649.07306	-225.20163	1426.29138	-330.86981	-112.84563	1267.97766	-476.94339	-253.57904	1512.89734	-547.78314	31.99984	1348.80383	-611.06049	-176.90782	1221.88379	-157.26323	11.25871	1236.56714	-771.40247	28.19713	1140.81689	-11.50197	-21.95932	910.52057	-583.86212	-209.73396	908.88959	-347.36801	-307.20511	982.98633	-689.98309	-12.16903	485.18301	-551.58673	-312.79248	505.65906	-327.29358	-92.81348	79.54286	-542.21558	-410.34933	147.50250	-533.56042	
57	0.560	-18.40285	1398.96252	-294.28763	-125.77448	1504.14917	-269.17520				27.18300	1546.47180	-439.21445	-23.73731	1482.92725	-645.84387	-225.95522	1425.63745	-329.11826	-111.75652	1268.90735	-474.05197	-252.36003	1513.11060	-542.86115	32.59273	1349.39844	-607.86060	-173.20995	1222.34521	-153.65810	11.14165	1237.50415	-768.41895	33.23368	1141.26917	-8.58123	-21.46505	910.46021	-581.47772	-207.34871	909.12140	-344.40048	-306.41205	983.61377	-683.87012	-11.02566	485.32578	-550.84546	-310.63464	507.45099	-321.63049	-92.61561	79.89698	-542.36139	-407.57831	142.43390	-516.36389	
